<svg width="52" height="52" viewBox="0 0 52 52" fill="none" xmlns="http://www.w3.org/2000/svg">
<path d="M50.9999 25.9999C50.9999 39.807 39.807 50.9999 25.9999 50.9999C12.1929 50.9999 1 39.807 1 25.9999C1 12.1929 12.1929 1 25.9999 1C39.807 1 50.9999 12.1929 50.9999 25.9999Z" stroke="#484848" stroke-width="2"/>
<path d="M15.6971 41.5835C18.2344 42.5195 20.9599 42.8598 23.6533 42.5767C26.3466 42.2936 28.9322 41.3952 31.2008 39.954C33.4695 38.5128 35.3575 36.5693 36.7123 34.2808C38.0671 31.9923 38.8506 29.4229 38.9993 26.7805C39.1481 24.1381 38.658 21.4968 37.5687 19.0703C36.4794 16.6438 34.8215 14.5002 32.729 12.8127C30.6365 11.1253 28.1682 9.94155 25.5237 9.35711C22.8792 8.77267 20.1327 8.80398 17.5064 9.44852C17.5064 9.44852 28.7852 12.3931 29.1648 25.3684C29.5444 38.3437 15.6971 41.5835 15.6971 41.5835Z" fill="#484848"/>
</svg>
